<svg width="60" height="67" viewBox="0 0 60 67" fill="none" xmlns="http://www.w3.org/2000/svg">
<path fill-rule="evenodd" clip-rule="evenodd" d="M46.2834 10.6616C49.1185 11.9176 51.5057 13.0065 51.5881 13.0812C51.6706 13.1558 50.6539 13.6689 49.3287 14.221C48.0036 14.7733 45.5099 15.8192 43.7872 16.5453L40.6549 17.8658L40.6532 29.0917C40.6516 40.8999 40.568 42.2594 39.7429 43.8878C38.7309 45.8849 35.7976 47.8978 33.545 48.1412C32.2879 48.277 31.2895 47.8019 30.7 46.7876C30.295 46.0907 30.2804 45.7045 30.2214 34.1886C30.1647 23.0963 30.1376 22.317 29.8106 22.438C29.6182 22.5095 27.1267 23.5469 24.2743 24.7436L19.088 26.9194L19.0896 38.8561C19.0904 46.0909 19.1749 51.3187 19.3041 52.128C19.7418 54.8738 21.2126 57.0473 23.2804 58.0047C24.3867 58.5169 24.2609 58.5143 21.6555 57.9691C17.9589 57.1956 14.6867 55.6358 12.4793 53.5945C10.65 51.9029 9.5815 50.278 8.91847 48.1796L8.40723 46.5611L8.41482 34.2989L8.42263 22.037L13.0416 19.983C15.582 18.8534 18.0049 17.8042 18.4256 17.6518C19.182 17.3774 19.2496 17.3995 24.4758 19.6285L29.7609 21.8828L29.8162 17.4747L29.8714 13.0664L35.4172 10.7278C38.4674 9.44156 41.0001 8.38663 41.0457 8.38355C41.0911 8.38047 43.4481 9.40562 46.2834 10.6616Z" fill="white" fill-opacity="0.87"/>
</svg>
